<svg width="48" height="32" version="1.1" viewBox="0 0 48 32" xmlns="http://www.w3.org/2000/svg"><title>{{ .Site.Title }}</title><defs><linearGradient id="logo-a" y1="100%"><stop stop-color="#007CFE" stop-opacity="0" offset="0"/><stop stop-color="#007DFF" offset="1"/></linearGradient><linearGradient id="logo-b" x1="100%" x2="0%" y1="50%" y2="50%"><stop stop-color="#FF4F7A" stop-opacity="0" offset="0"/><stop stop-color="#FF4F7A" offset="1"/></linearGradient></defs><g fill-rule="evenodd"><rect width="32" height="32" rx="16" fill="url(#logo-a)"/><rect x="16" width="32" height="32" rx="16" fill="url(#logo-b)"/></g><path d="m23.966 2.739c-0.35751 1.4592-1.1523 3.2568-3.193 4.7759-2.429 1.8082 1.2941 3.3252 1.6336 3.6647 0.44639 0.44639-0.90395 3.1274-1.0847 3.661-0.24314 0.71758 1.3898 1.0847 1.3898 1.0847s-0.9974 1.0742-1.0169 1.5932c-0.02657 0.70551 1.4378 0.63007 1.2881 1.1864-0.49217 1.829-0.52445 3.6582 0.71186 4.5763 3.5024 2.6008 8.0573-1.6311 11.831-1.4915 7.9552 0.29432 9.6134 5.7482 10.545 10.21" fill="none" stroke="#000" stroke-linecap="round"/><g transform="matrix(.86975 0 0 .86975 3.6477 1.2807)" fill="none" stroke="#000" stroke-linecap="round"><path d="m36.602 8.4027c0.63206-2.744 2.9593-4.12 4.8896-3.8965 1.642 0.19016 3.6722 2.1178 3.2542 5.6633-0.22914 1.9438-1.5131 2.4623-2.1017 3.7288-0.66607 1.4332-1.1537 3.081-3.1186 3.5254-1.2307 0.27838-2.5129-1.2837-2.3729-1.4237" stroke-width="1.0003"/><path d="m38.927 7.2628c1.7594-1.9416 5.6015-0.10469 3.1886 4.4864" stroke-width="1.0003"/><path d="m38.427 10.882c0.63579-0.27611 1.1884 0.55961 1.0992 1.0547-0.1668 0.9258-1.076 1.1574-1.2464 1.8936-0.08719 0.37668 0.14718 1.1505 0.14718 1.1505" stroke-width="1.0003"/></g><g transform="rotate(36.737 -48.364 23.488)" fill="none" stroke="#000"><path d="m0-13.189a6 6 0 0 1-4.2426-1.7574 6 6 0 0 1-1.7574-4.2426"/><path d="m0-9.1892a10 10 0 0 1-7.0711-2.9289 10 10 0 0 1-2.9289-7.0711"/><path d="m0-17.189a2 2 0 0 1-1.4142-0.58579 2 2 0 0 1-0.58579-1.4142"/></g></svg>
